<svg width="20" height="20" viewBox="0 0 20 20" fill="none" xmlns="http://www.w3.org/2000/svg">
<circle cx="10" cy="10" r="10" fill="#F5841F"/>
<path d="M10.65 12.925C10.55 12.825 10.502 12.7042 10.506 12.5625C10.5103 12.4208 10.5625 12.3 10.6625 12.2L12.075 10.7875H6.5C6.35833 10.7875 6.2395 10.7395 6.1435 10.6435C6.04783 10.5478 6 10.4292 6 10.2875C6 10.1458 6.04783 10.027 6.1435 9.931C6.2395 9.83533 6.35833 9.7875 6.5 9.7875H12.075L10.65 8.3625C10.55 8.2625 10.5 8.14367 10.5 8.006C10.5 7.86867 10.55 7.75 10.65 7.65C10.75 7.55 10.8688 7.5 11.0065 7.5C11.1438 7.5 11.2625 7.55 11.3625 7.65L13.65 9.9375C13.7 9.9875 13.7355 10.0417 13.7565 10.1C13.7772 10.1583 13.7875 10.2208 13.7875 10.2875C13.7875 10.3542 13.7772 10.4167 13.7565 10.475C13.7355 10.5333 13.7 10.5875 13.65 10.6375L11.35 12.9375C11.2583 13.0292 11.1438 13.075 11.0065 13.075C10.8688 13.075 10.75 13.025 10.65 12.925V12.925Z" fill="white"/>
</svg>
