<svg width="18" height="19" viewBox="0 0 18 19" fill="none" xmlns="http://www.w3.org/2000/svg">
<path d="M12 6.5C13.1935 6.5 14.3381 6.97411 15.182 7.81802C16.0259 8.66193 16.5 9.80653 16.5 11V16.25H13.5V11C13.5 10.6022 13.342 10.2206 13.0607 9.93934C12.7794 9.65804 12.3978 9.5 12 9.5C11.6022 9.5 11.2206 9.65804 10.9393 9.93934C10.658 10.2206 10.5 10.6022 10.5 11V16.25H7.5V11C7.5 9.80653 7.97411 8.66193 8.81802 7.81802C9.66193 6.97411 10.8065 6.5 12 6.5V6.5Z" stroke="#F5841F" stroke-width="1.2" stroke-linecap="round" stroke-linejoin="round"/>
<path d="M4.5 7.25H1.5V16.25H4.5V7.25Z" stroke="#F5841F" stroke-width="1.2" stroke-linecap="round" stroke-linejoin="round"/>
<path d="M3 5C3.82843 5 4.5 4.32843 4.5 3.5C4.5 2.67157 3.82843 2 3 2C2.17157 2 1.5 2.67157 1.5 3.5C1.5 4.32843 2.17157 5 3 5Z" stroke="#F5841F" stroke-width="1.2" stroke-linecap="round" stroke-linejoin="round"/>
</svg>
