<svg width="18" height="18" viewBox="0 0 18 18" fill="none" xmlns="http://www.w3.org/2000/svg">
<path fill-rule="evenodd" clip-rule="evenodd" d="M2.25 9C2.25 5.27208 5.27208 2.25 9 2.25C12.7279 2.25 15.75 5.27208 15.75 9C15.75 11.0414 14.8438 12.8711 13.4118 14.1088C12.9982 12.0504 11.1802 10.5 9 10.5C6.81982 10.5 5.00175 12.0504 4.58823 14.1088C3.15618 12.8711 2.25 11.0414 2.25 9ZM6 15.0484C6.90372 15.4975 7.92237 15.75 9 15.75C10.0776 15.75 11.0963 15.4975 12 15.0484V15C12 13.3431 10.6569 12 9 12C7.34315 12 6 13.3431 6 15V15.0484ZM9 0.75C4.44365 0.75 0.75 4.44365 0.75 9C0.75 13.5563 4.44365 17.25 9 17.25C13.5563 17.25 17.25 13.5563 17.25 9C17.25 4.44365 13.5563 0.75 9 0.75ZM9 8.25C8.17157 8.25 7.5 7.57843 7.5 6.75C7.5 5.92157 8.17157 5.25 9 5.25C9.82843 5.25 10.5 5.92157 10.5 6.75C10.5 7.57843 9.82843 8.25 9 8.25ZM6 6.75C6 8.40685 7.34315 9.75 9 9.75C10.6569 9.75 12 8.40685 12 6.75C12 5.09315 10.6569 3.75 9 3.75C7.34315 3.75 6 5.09315 6 6.75Z" fill="#F5841F"/>
</svg>
