<svg width="13" height="9" viewBox="0 0 13 9" fill="none" xmlns="http://www.w3.org/2000/svg">
<path fill-rule="evenodd" clip-rule="evenodd" d="M1.3592 1.00397H11.3477V1.88492L6.35344 4.38204L1.3592 1.88492V1.00397ZM0.360352 1.00391C0.360384 0.452293 0.807571 0.00512695 1.3592 0.00512695H11.3477C11.8993 0.00512695 12.3465 0.452293 12.3465 1.00391C12.3465 1.00393 12.3465 1.00395 12.3465 1.00397V2.50225V7.49642C12.3465 8.3239 11.6757 8.99469 10.8483 8.99469H1.85862C1.03115 8.99469 0.360352 8.3239 0.360352 7.49642V2.50225V1.00397M1.3592 3.00167V7.49642C1.3592 7.77225 1.5828 7.99585 1.85862 7.99585H10.8483C11.1241 7.99585 11.3477 7.77225 11.3477 7.49642V3.00167L6.35344 5.49879L1.3592 3.00167Z" fill="#F5841F"/>
</svg>
