<svg width="26" height="23" viewBox="0 0 26 23" fill="none" xmlns="http://www.w3.org/2000/svg">
<path d="M4.00002 15.994H3.86742L3.79305 16.1038L0.25 21.3333V0.75H0.256639H0.270036H0.283757H0.297803H0.312173H0.326864H0.341876H0.357208H0.372859H0.388827H0.405111H0.421711H0.438625H0.455851H0.47339H0.491239H0.509397H0.527864H0.546639H0.565719H0.585104H0.604793H0.624785H0.645078H0.665672H0.686565H0.707756H0.729244H0.751028H0.773106H0.795478H0.818143H0.841099H0.864345H0.88788H0.911703H0.935812H0.960208H0.984887H1.00985H1.0351H1.06062H1.08643H1.11251H1.13887H1.16551H1.19243H1.21962H1.24708H1.27481H1.30282H1.33109H1.35963H1.38844H1.41752H1.44686H1.47646H1.50633H1.53646H1.56685H1.5975H1.62841H1.65957H1.69099H1.72267H1.7546H1.78678H1.81921H1.8519H1.88483H1.91801H1.95144H1.98511H2.01903H2.05319H2.08759H2.12224H2.15712H2.19225H2.22761H2.26321H2.29904H2.33511H2.37141H2.40794H2.44471H2.4817H2.51892H2.55637H2.59405H2.63195H2.67007H2.70842H2.74699H2.78578H2.82479H2.86402H2.90347H2.94313H2.98301H3.0231H3.0634H3.10392H3.14464H3.18558H3.22672H3.26807H3.30963H3.35139H3.39335H3.43552H3.47789H3.52046H3.56322H3.60619H3.64935H3.69271H3.73626H3.78H3.82394H3.86807H3.91239H3.95689H4.00159H4.04647H4.09154H4.13679H4.18222H4.22784H4.27363H4.31961H4.36576H4.4121H4.4586H4.50529H4.55214H4.59917H4.64638H4.69375H4.74129H4.789H4.83688H4.88492H4.93313H4.9815H5.03003H5.07873H5.12759H5.1766H5.22577H5.2751H5.32459H5.37423H5.42402H5.47397H5.52407H5.57431H5.62471H5.67525H5.72594H5.77678H5.82776H5.87888H5.93015H5.98156H6.0331H6.08479H6.13661H6.18857H6.24066H6.29289H6.34525H6.39775H6.45037H6.50312H6.556H6.60901H6.66215H6.71541H6.76879H6.8223H6.87592H6.92967H6.98354H7.03753H7.09163H7.14585H7.20018H7.25463H7.30919H7.36386H7.41864H7.47353H7.52853H7.58363H7.63884H7.69416H7.74957H7.80509H7.86072H7.91644H7.97226H8.02817H8.08419H8.1403H8.1965H8.2528H8.30919H8.36567H8.42224H8.47889H8.53564H8.59247H8.64939H8.70639H8.76347H8.82063H8.87788H8.9352H8.99261H9.05009H9.10764H9.16527H9.22298H9.28076H9.33861H9.39653H9.45451H9.51257H9.57069H9.62888H9.68714H9.74545H9.80383H9.86227H9.92077H9.97933H10.0379H10.0966H10.1554H10.2141H10.273H10.3319H10.3908H10.4498H10.5088H10.5679H10.627H10.6862H10.7454H10.8047H10.864H10.9234H10.9828H11.0422H11.1016H11.1611H11.2207H11.2802H11.3398H11.3995H11.4591H11.5188H11.5785H11.6383H11.6981H11.7579H11.8177H11.8775H11.9374H11.9973H12.0572H12.1171H12.177H12.237H12.297H12.3569H12.4169H12.4769H12.537H12.597H12.657H12.717H12.7771H12.8371H12.8972H12.9572H13.0173H13.0773H13.1374H13.1974H13.2575H13.3175H13.3776H13.4376H13.4976H13.5576H13.6176H13.6776H13.7376H13.7975H13.8575H13.9174H13.9773H14.0372H14.0971H14.1569H14.2168H14.2766H14.3364H14.3961H14.4559H14.5156H14.5752H14.6349H14.6945H14.7541H14.8136H14.8731H14.9326H14.9921H15.0515H15.1108H15.1701H15.2294H15.2887H15.3479H15.407H15.4661H15.5252H15.5842H15.6431H15.7021H15.7609H15.8197H15.8785H15.9372H15.9958H16.0544H16.1129H16.1714H16.2298H16.2881H16.3464H16.4046H16.4628H16.5209H16.5789H16.6368H16.6947H16.7525H16.8103H16.8679H16.9255H16.983H17.0405H17.0978H17.1551H17.2123H17.2694H17.3265H17.3834H17.4403H17.4971H17.5538H17.6104H17.6669H17.7233H17.7796H17.8359H17.892H17.9481H18.0041H18.0599H18.1157H18.1713H18.2269H18.2824H18.3377H18.393H18.4481H18.5032H18.5581H18.6129H18.6677H18.7223H18.7768H18.8311H18.8854H18.9396H18.9936H19.0475H19.1013H19.155H19.2086H19.262H19.3153H19.3685H19.4216H19.4745H19.5273H19.58H19.6325H19.6849H19.7372H19.7894H19.8414H19.8933H19.945H19.9966H20.0481H20.0994H20.1506H20.2016H20.2525H20.3033H20.3539H20.4044H20.4547H20.5048H20.5548H20.6047H20.6544H20.704H20.7534H20.8026H20.8517H20.9006H20.9494H20.998H21.0464H21.0947H21.1428H21.1908H21.2385H21.2861H21.3336H21.3809H21.428H21.4749H21.5217H21.5682H21.6147H21.6609H21.7069H21.7528H21.7985H21.844H21.8893H21.9345H21.9794H22.0242H22.0688H22.1132H22.1574H22.2014H22.2453H22.2889H22.3323H22.3756H22.4186H22.4615H22.5041H22.5466H22.5888H22.6309H22.6727H22.7144H22.7558H22.7971H22.8381H22.8789H22.9195H22.9599H23.0001C24.5227 0.75 25.75 1.96348 25.75 3.45206V13.2921C25.75 14.7805 24.5227 15.994 23.0001 15.994H22.9647H22.9292H22.8936H22.8577H22.8217H22.7856H22.7493H22.7129H22.6763H22.6395H22.6027H22.5656H22.5284H22.4911H22.4536H22.416H22.3782H22.3403H22.3022H22.264H22.2256H22.1871H22.1485H22.1097H22.0708H22.0318H21.9926H21.9533H21.9138H21.8743H21.8345H21.7947H21.7547H21.7146H21.6744H21.634H21.5935H21.5529H21.5121H21.4713H21.4303H21.3892H21.3479H21.3066H21.2651H21.2235H21.1818H21.1399H21.098H21.0559H21.0138H20.9715H20.9291H20.8865H20.8439H20.8012H20.7583H20.7154H20.6723H20.6291H20.5858H20.5425H20.499H20.4554H20.4117H20.3679H20.324H20.28H20.2359H20.1917H20.1474H20.103H20.0586H20.014H19.9693H19.9246H19.8797H19.8348H19.7897H19.7446H19.6994H19.6541H19.6087H19.5633H19.5177H19.4721H19.4264H19.3806H19.3347H19.2887H19.2427H19.1966H19.1504H19.1041H19.0578H19.0113H18.9648H18.9183H18.8716H18.8249H18.7781H18.7313H18.6844H18.6374H18.5903H18.5432H18.496H18.4488H18.4015H18.3541H18.3067H18.2592H18.2116H18.164H18.1163H18.0686H18.0208H17.973H17.9251H17.8772H17.8292H17.7811H17.733H17.6849H17.6367H17.5884H17.5401H17.4918H17.4434H17.395H17.3465H17.298H17.2494H17.2008H17.1522H17.1035H17.0548H17.0061H16.9573H16.9084H16.8596H16.8107H16.7618H16.7128H16.6638H16.6148H16.5658H16.5167H16.4676H16.4185H16.3693H16.3201H16.2709H16.2217H16.1725H16.1232H16.0739H16.0246H15.9753H15.9259H15.8766H15.8272H15.7778H15.7284H15.679H15.6295H15.5801H15.5307H15.4812H15.4317H15.3822H15.3328H15.2833H15.2338H15.1843H15.1348H15.0853H15.0358H14.9862H14.9367H14.8872H14.8377H14.7882H14.7387H14.6892H14.6397H14.5903H14.5408H14.4913H14.4419H14.3924H14.343H14.2936H14.2442H14.1948H14.1454H14.096H14.0467H13.9973H13.948H13.8987H13.8494H13.8002H13.7509H13.7017H13.6525H13.6034H13.5542H13.5051H13.456H13.407H13.358H13.309H13.26H13.211H13.1621H13.1133H13.0644H13.0156H12.9669H12.9181H12.8694H12.8208H12.7722H12.7236H12.6751H12.6266H12.5781H12.5297H12.4814H12.433H12.3848H12.3366H12.2884H12.2403H12.1922H12.1442H12.0962H12.0483H12.0004H11.9526H11.9049H11.8572H11.8095H11.762H11.7144H11.667H11.6196H11.5722H11.525H11.4778H11.4306H11.3835H11.3365H11.2896H11.2427H11.1959H11.1491H11.1025H11.0559H11.0093H10.9629H10.9165H10.8702H10.824H10.7778H10.7317H10.6857H10.6398H10.594H10.5482H10.5026H10.457H10.4115H10.3661H10.3207H10.2755H10.2303H10.1852H10.1403H10.0954H10.0506H10.0059H9.96125H9.91673H9.8723H9.82797H9.78374H9.7396H9.69556H9.65162H9.60778H9.56405H9.52041H9.47688H9.43345H9.39012H9.3469H9.30379H9.26078H9.21788H9.17509H9.13241H9.08985H9.04739H9.00505H8.96282H8.9207H8.8787H8.83681H8.79504H8.75339H8.71186H8.67045H8.62916H8.58799H8.54694H8.50602H8.46522H8.42455H8.384H8.34358H8.30328H8.26312H8.22308H8.18317H8.1434H8.10376H8.06425H8.02487H7.98563H7.94653H7.90756H7.86873H7.83004H7.79149H7.75307H7.7148H7.67667H7.63869H7.60084H7.56315H7.52559H7.48819H7.45093H7.41382H7.37686H7.34005H7.30339H7.26688H7.23052H7.19432H7.15827H7.12238H7.08664H7.05106H7.01564H6.98038H6.94528H6.91034H6.87556H6.84094H6.80648H6.77219H6.73807H6.70411H6.67032H6.63669H6.60324H6.56995H6.53684H6.5039H6.47112H6.43853H6.4061H6.37385H6.34178H6.30988H6.27816H6.24662H6.21526H6.18408H6.15308H6.12227H6.09163H6.06118H6.03092H6.00084H5.97094H5.94124H5.91172H5.88239H5.85325H5.82431H5.79555H5.76699H5.73862H5.71044H5.68247H5.65468H5.6271H5.59971H5.57252H5.54554H5.51875H5.49216H5.46578H5.4396H5.41363H5.38786H5.36229H5.33694H5.31179H5.28685H5.26212H5.2376H5.21329H5.1892H5.16531H5.14165H5.11819H5.09496H5.07194H5.04913H5.02655H5.00419H4.98204H4.96012H4.93842H4.91694H4.89569H4.87466H4.85386H4.83329H4.81294H4.79282H4.77293H4.75327H4.73384H4.71464H4.69568H4.67695H4.65845H4.64019H4.62217H4.60438H4.58684H4.56953H4.55246H4.53563H4.51905H4.5027H4.4866H4.47075H4.45514H4.43978H4.42466H4.40979H4.39517H4.38081H4.36669H4.35282H4.33921H4.32585H4.31274H4.29989H4.28729H4.27495H4.26287H4.25105H4.23949H4.22819H4.21715H4.20637H4.19586H4.18561H4.17562H4.1659H4.15645H4.14727H4.13835H4.1297H4.12133H4.11322H4.10539H4.09783H4.09054H4.08353H4.07679H4.07034H4.06415H4.05825H4.05263H4.04728H4.04222H4.03744H4.03294H4.02873H4.0248H4.02115H4.0178H4.01473H4.01194H4.00945H4.00725H4.00534H4.00371H4.00239H4.00135H4.00061H4.00017C4.00007 15.994 4.00002 15.994 4.00002 16.244V15.994Z" stroke="#8ECAE6" stroke-width="0.5"/>
<path d="M12.74 11.08C12.372 11.08 12.0253 11.016 11.7 10.888C11.3747 10.76 11.1133 10.5653 10.916 10.304C10.7187 10.0427 10.62 9.71733 10.62 9.328C10.62 9.04533 10.6787 8.78667 10.796 8.552C10.9133 8.31733 11.0973 8.12267 11.348 7.968C11.204 7.85067 11.0893 7.712 11.004 7.552C10.9187 7.38667 10.876 7.192 10.876 6.968C10.876 6.62667 10.964 6.336 11.14 6.096C11.316 5.85067 11.5453 5.664 11.828 5.536C12.1107 5.408 12.4147 5.344 12.74 5.344C13.0707 5.344 13.3773 5.41067 13.66 5.544C13.9427 5.672 14.1667 5.85867 14.332 6.104C14.5027 6.344 14.588 6.63467 14.588 6.976C14.588 7.19467 14.548 7.38667 14.468 7.552C14.3933 7.712 14.2813 7.85067 14.132 7.968C14.3827 8.12267 14.5667 8.31733 14.684 8.552C14.8013 8.78667 14.86 9.04533 14.86 9.328C14.86 9.71733 14.7613 10.0427 14.564 10.304C14.3667 10.5653 14.1053 10.76 13.78 10.888C13.46 11.016 13.1133 11.08 12.74 11.08ZM12.74 10.04C12.9373 10.04 13.1133 10.0107 13.268 9.952C13.4227 9.888 13.5427 9.79467 13.628 9.672C13.7133 9.54933 13.756 9.39733 13.756 9.216C13.756 9.04 13.7133 8.89333 13.628 8.776C13.5427 8.65333 13.4227 8.56267 13.268 8.504C13.1133 8.44 12.9373 8.408 12.74 8.408C12.5427 8.408 12.3667 8.44 12.212 8.504C12.0573 8.56267 11.9347 8.65333 11.844 8.776C11.7587 8.89333 11.716 9.04 11.716 9.216C11.716 9.39733 11.7587 9.54933 11.844 9.672C11.9347 9.79467 12.0573 9.888 12.212 9.952C12.3667 10.0107 12.5427 10.04 12.74 10.04ZM12.74 7.664C12.9693 7.664 13.1533 7.608 13.292 7.496C13.4307 7.384 13.5 7.23467 13.5 7.048C13.5 6.84533 13.4333 6.68533 13.3 6.568C13.1667 6.45067 12.98 6.392 12.74 6.392C12.5853 6.392 12.4493 6.41867 12.332 6.472C12.22 6.52 12.132 6.59467 12.068 6.696C12.0093 6.792 11.98 6.90667 11.98 7.04C11.98 7.232 12.0493 7.384 12.188 7.496C12.332 7.608 12.516 7.664 12.74 7.664ZM15.3606 11V9.904H16.5126V11H15.3606Z" fill="#8ECAE6"/>
</svg>
