<svg width="28" height="24" viewBox="0 0 28 24" fill="none" xmlns="http://www.w3.org/2000/svg">
<path d="M4.279 16.9577H4.13659L4.05634 17.0754L0.269531 22.6266V0.769531H0.274538H0.288869H0.303548H0.318573H0.333945H0.349661H0.36572H0.382121H0.398863H0.415945H0.433365H0.451123H0.469216H0.487644H0.506406H0.5255H0.544925H0.56468H0.584763H0.605174H0.625911H0.646974H0.66836H0.690068H0.712098H0.734448H0.757117H0.780104H0.803407H0.827026H0.850958H0.875203H0.89976H0.924627H0.949804H0.975288H1.00108H1.02718H1.05358H1.08028H1.10729H1.13459H1.1622H1.1901H1.2183H1.2468H1.27559H1.30468H1.33405H1.36372H1.39368H1.42392H1.45446H1.48528H1.51638H1.54777H1.57944H1.61139H1.64362H1.67613H1.70892H1.74198H1.77532H1.80893H1.84281H1.87697H1.9114H1.94609H1.98106H2.01628H2.05178H2.08754H2.12356H2.15984H2.19639H2.23319H2.27025H2.30757H2.34514H2.38297H2.42105H2.45938H2.49797H2.5368H2.57588H2.61521H2.65478H2.6946H2.73466H2.77497H2.81551H2.8563H2.89732H2.93858H2.98008H3.02181H3.06377H3.10597H3.1484H3.19105H3.23394H3.27706H3.3204H3.36396H3.40775H3.45177H3.496H3.54045H3.58513H3.63002H3.67513H3.72045H3.76598H3.81173H3.8577H3.90387H3.95025H3.99684H4.04363H4.09064H4.13784H4.18525H4.23286H4.28067H4.32869H4.37689H4.4253H4.4739H4.5227H4.57169H4.62087H4.67025H4.71981H4.76956H4.8195H4.86963H4.91994H4.97043H5.02111H5.07196H5.123H5.17422H5.22561H5.27718H5.32893H5.38085H5.43294H5.4852H5.53764H5.59024H5.64301H5.69595H5.74905H5.80231H5.85574H5.90933H5.96309H6.017H6.07107H6.12529H6.17967H6.23421H6.2889H6.34374H6.39873H6.45387H6.50916H6.5646H6.62018H6.67591H6.73178H6.78779H6.84395H6.90024H6.95667H7.01324H7.06995H7.12679H7.18376H7.24087H7.29811H7.35548H7.41297H7.4706H7.52835H7.58623H7.64423H7.70235H7.76059H7.81896H7.87744H7.93604H7.99476H8.05359H8.11254H8.1716H8.23077H8.29006H8.34945H8.40895H8.46856H8.52827H8.58809H8.64801H8.70803H8.76816H8.82838H8.8887H8.94912H9.00963H9.07024H9.13094H9.19174H9.25263H9.3136H9.37467H9.43582H9.49706H9.55838H9.61978H9.68127H9.74284H9.80449H9.86622H9.92803H9.98991H10.0519H10.1139H10.176H10.2382H10.3004H10.3628H10.4251H10.4876H10.5501H10.6127H10.6753H10.738H10.8008H10.8636H10.9265H10.9894H11.0524H11.1155H11.1786H11.2418H11.305H11.3682H11.4315H11.4949H11.5583H11.6217H11.6852H11.7487H11.8123H11.8759H11.9396H12.0032H12.067H12.1307H12.1945H12.2583H12.3222H12.3861H12.45H12.5139H12.5779H12.6419H12.7059H12.7699H12.834H12.8981H12.9622H13.0263H13.0904H13.1546H13.2188H13.2829H13.3471H13.4113H13.4755H13.5398H13.604H13.6682H13.7324H13.7967H13.8609H13.9252H13.9894H14.0536H14.1179H14.1821H14.2463H14.3106H14.3748H14.439H14.5032H14.5674H14.6315H14.6957H14.7598H14.824H14.8881H14.9522H15.0162H15.0803H15.1443H15.2083H15.2723H15.3362H15.4002H15.4641H15.5279H15.5918H15.6556H15.7193H15.7831H15.8468H15.9104H15.9741H16.0376H16.1012H16.1647H16.2282H16.2916H16.3549H16.4183H16.4816H16.5448H16.608H16.6711H16.7342H16.7972H16.8601H16.923H16.9859H17.0487H17.1114H17.1741H17.2367H17.2992H17.3617H17.4241H17.4865H17.5488H17.611H17.6731H17.7352H17.7972H17.8591H17.9209H17.9827H18.0444H18.106H18.1675H18.2289H18.2903H18.3516H18.4128H18.4739H18.5349H18.5958H18.6566H18.7174H18.778H18.8386H18.899H18.9594H19.0197H19.0798H19.1399H19.1999H19.2597H19.3195H19.3791H19.4387H19.4981H19.5574H19.6167H19.6758H19.7348H19.7937H19.8524H19.9111H19.9696H20.028H20.0863H20.1445H20.2025H20.2605H20.3183H20.376H20.4335H20.4909H20.5482H20.6054H20.6624H20.7193H20.7761H20.8327H20.8892H20.9456H21.0018H21.0578H21.1138H21.1696H21.2252H21.2807H21.3361H21.3913H21.4463H21.5012H21.556H21.6106H21.665H21.7193H21.7735H21.8274H21.8813H21.9349H21.9884H22.0417H22.0949H22.1479H22.2008H22.2534H22.306H22.3583H22.4105H22.4624H22.5143H22.5659H22.6174H22.6687H22.7198H22.7707H22.8215H22.872H22.9224H22.9726H23.0227H23.0725H23.1221H23.1716H23.2209H23.2699H23.3188H23.3675H23.416H23.4643H23.5124H23.5603H23.608H23.6555H23.7028H23.7498H23.7967H23.8434H23.8899H23.9361H23.9822H24.028H24.0737H24.1191H24.1643H24.2093H24.254H24.2986H24.3429H24.387H24.4309H24.4746H24.518H24.5612H24.6042C26.2337 0.769531 27.5438 2.05882 27.5438 3.63642V14.091C27.5438 15.6684 26.2337 16.9577 24.6042 16.9577H24.5664H24.5284H24.4902H24.4519H24.4134H24.3748H24.3359H24.297H24.2578H24.2185H24.179H24.1394H24.0996H24.0597H24.0196H23.9793H23.9389H23.8983H23.8576H23.8167H23.7757H23.7345H23.6932H23.6518H23.6101H23.5684H23.5264H23.4844H23.4422H23.3998H23.3574H23.3147H23.272H23.2291H23.186H23.1428H23.0995H23.0561H23.0125H22.9688H22.9249H22.8809H22.8368H22.7926H22.7482H22.7037H22.6591H22.6143H22.5695H22.5245H22.4793H22.4341H22.3887H22.3432H22.2976H22.2519H22.2061H22.1601H22.114H22.0679H22.0216H21.9752H21.9286H21.882H21.8353H21.7884H21.7415H21.6944H21.6472H21.6H21.5526H21.5051H21.4575H21.4098H21.3621H21.3142H21.2662H21.2181H21.1699H21.1217H21.0733H21.0249H20.9763H20.9277H20.879H20.8301H20.7812H20.7322H20.6832H20.634H20.5847H20.5354H20.486H20.4365H20.3869H20.3373H20.2875H20.2377H20.1878H20.1378H20.0878H20.0377H19.9875H19.9372H19.8869H19.8365H19.786H19.7355H19.6849H19.6342H19.5834H19.5326H19.4818H19.4308H19.3798H19.3288H19.2777H19.2265H19.1753H19.124H19.0726H19.0212H18.9698H18.9183H18.8667H18.8151H18.7634H18.7117H18.66H18.6082H18.5563H18.5044H18.4525H18.4005H18.3484H18.2964H18.2443H18.1921H18.1399H18.0877H18.0354H17.9831H17.9308H17.8784H17.826H17.7736H17.7211H17.6686H17.6161H17.5636H17.511H17.4584H17.4057H17.3531H17.3004H17.2477H17.195H17.1422H17.0894H17.0367H16.9839H16.931H16.8782H16.8254H16.7725H16.7196H16.6667H16.6138H16.5609H16.508H16.4551H16.4021H16.3492H16.2962H16.2433H16.1903H16.1374H16.0844H16.0314H15.9785H15.9255H15.8726H15.8196H15.7667H15.7137H15.6608H15.6078H15.5549H15.502H15.4491H15.3962H15.3433H15.2905H15.2376H15.1848H15.1319H15.0791H15.0263H14.9735H14.9208H14.8681H14.8153H14.7627H14.71H14.6573H14.6047H14.5521H14.4996H14.447H14.3945H14.342H14.2896H14.2372H14.1848H14.1324H14.0801H14.0278H13.9756H13.9234H13.8712H13.8191H13.767H13.715H13.6629H13.611H13.5591H13.5072H13.4554H13.4036H13.3519H13.3002H13.2485H13.197H13.1454H13.094H13.0425H12.9912H12.9398H12.8886H12.8374H12.7862H12.7352H12.6841H12.6332H12.5823H12.5314H12.4807H12.43H12.3793H12.3288H12.2783H12.2278H12.1775H12.1272H12.0769H12.0268H11.9767H11.9267H11.8768H11.8269H11.7772H11.7275H11.6779H11.6283H11.5789H11.5295H11.4802H11.431H11.3819H11.3329H11.2839H11.2351H11.1863H11.1376H11.089H11.0405H10.9921H10.9438H10.8956H10.8475H10.7995H10.7515H10.7037H10.656H10.6084H10.5608H10.5134H10.4661H10.4189H10.3718H10.3248H10.2779H10.2311H10.1844H10.1378H10.0914H10.045H9.99879H9.95267H9.90666H9.86077H9.815H9.76934H9.72381H9.67839H9.63309H9.58791H9.54286H9.49793H9.45312H9.40844H9.36389H9.31946H9.27516H9.23099H9.18695H9.14304H9.09926H9.05562H9.0121H8.96873H8.92549H8.88238H8.83942H8.79659H8.7539H8.71135H8.66894H8.62668H8.58456H8.54258H8.50075H8.45906H8.41752H8.37613H8.33489H8.2938H8.25286H8.21207H8.17144H8.13095H8.09063H8.05046H8.01044H7.97058H7.93089H7.89135H7.85197H7.81275H7.77369H7.7348H7.69608H7.65751H7.61912H7.58089H7.54283H7.50494H7.46722H7.42967H7.39229H7.35508H7.31805H7.28119H7.24451H7.20801H7.17168H7.13553H7.09956H7.06377H7.02817H6.99274H6.9575H6.92244H6.88757H6.85289H6.81839H6.78408H6.74996H6.71603H6.68229H6.64874H6.61538H6.58222H6.54926H6.51648H6.48391H6.45153H6.41936H6.38738H6.3556H6.32402H6.29265H6.26148H6.23051H6.19975H6.1692H6.13885H6.10871H6.07878H6.04906H6.01955H5.99026H5.96117H5.9323H5.90365H5.87521H5.84698H5.81898H5.79119H5.76363H5.73628H5.70915H5.68225H5.65557H5.62912H5.60289H5.57689H5.55111H5.52556H5.50024H5.47515H5.4503H5.42567H5.40128H5.37712H5.3532H5.32951H5.30606H5.28285H5.25987H5.23714H5.21464H5.19239H5.17038H5.14861H5.12709H5.10581H5.08478H5.06399H5.04346H5.02317H5.00314H4.98335H4.96382H4.94454H4.92551H4.90674H4.88822H4.86997H4.85196H4.83422H4.81674H4.79952H4.78256H4.76586H4.74942H4.73325H4.71735H4.70171H4.68634H4.67124H4.6564H4.64184H4.62755H4.61352H4.59978H4.5863H4.57311H4.56018H4.54754H4.53517H4.52308H4.51127H4.49974H4.48849H4.47753H4.46685H4.45645H4.44634H4.43651H4.42697H4.41772H4.40876H4.40009H4.39171H4.38362H4.37583H4.36833H4.36112H4.35422H4.3476H4.34129H4.33527H4.32956H4.32414H4.31903H4.31421H4.30971H4.3055H4.3016H4.29801H4.29473H4.29175H4.28908H4.28673H4.28468H4.28295H4.28153H4.28042H4.27963H4.27915C4.27905 16.9577 4.279 16.9577 4.279 17.2273V16.9577Z" stroke="#8ECAE6" stroke-width="0.539062"/>
<path d="M9.26769 12.5V11.6202C9.44594 11.4937 9.65582 11.3442 9.89732 11.1717C10.1388 10.9992 10.3832 10.8095 10.6304 10.6025C10.8834 10.3955 11.1163 10.1741 11.3291 9.93837C11.5418 9.69687 11.7143 9.44962 11.8466 9.19662C11.9846 8.93787 12.0536 8.67337 12.0536 8.40312C12.0536 8.17312 11.9932 7.97762 11.8724 7.81662C11.7517 7.64987 11.5562 7.5665 11.2859 7.5665C11.0559 7.5665 10.8777 7.62687 10.7512 7.74763C10.6247 7.86837 10.5327 8.01787 10.4752 8.19612C10.4177 8.37437 10.3832 8.55262 10.3717 8.73087L9.20732 8.636C9.20732 8.3715 9.25332 8.10987 9.34532 7.85112C9.43732 7.58662 9.57244 7.348 9.75069 7.13525C9.92894 6.91675 10.1474 6.74425 10.4062 6.61775C10.6707 6.4855 10.9754 6.41937 11.3204 6.41937C11.6884 6.41937 12.0162 6.49987 12.3037 6.66087C12.5969 6.82187 12.8241 7.049 12.9851 7.34225C13.1518 7.6355 13.2352 7.97762 13.2352 8.36862C13.2352 8.66187 13.1863 8.9465 13.0886 9.2225C12.9966 9.4985 12.8614 9.763 12.6832 10.016C12.5107 10.269 12.3008 10.5105 12.0536 10.7405C11.8063 10.9647 11.5274 11.1746 11.2169 11.3701C10.9064 11.5599 10.5729 11.7324 10.2164 11.8876L10.5269 11.396H13.4681V12.5H9.26769ZM16.0519 12.5V7.7735L16.3882 8.36H14.5166V7.41987H15.4136C15.6206 7.41987 15.7787 7.37387 15.888 7.28187C15.9972 7.18987 16.0519 7.02887 16.0519 6.79887V6.48837H17.2335V12.5H16.0519ZM19.0065 12.5V11.3184H20.2485V12.5H19.0065Z" fill="#8ECAE6"/>
</svg>
