<svg width="70" height="71" viewBox="0 0 70 71" fill="none" xmlns="http://www.w3.org/2000/svg">
<circle cx="35" cy="35.25" r="35" fill="#16213C"/>
<path d="M37.5625 43.2188L43.7812 37L42 35.25L37.5625 39.6875L35.8125 37.9062L34.0313 39.6875L37.5625 43.2188ZM28.75 39H32.5V36.5H28.75V39ZM28.75 35.25H37.5V32.75H28.75V35.25ZM28.75 31.5H37.5V29H28.75V31.5ZM35 47.75C33.2708 47.75 31.6458 47.4217 30.125 46.765C28.6042 46.1092 27.2813 45.2188 26.1563 44.0938C25.0313 42.9688 24.1408 41.6458 23.485 40.125C22.8283 38.6042 22.5 36.9792 22.5 35.25C22.5 33.5208 22.8283 31.8958 23.485 30.375C24.1408 28.8542 25.0313 27.5313 26.1563 26.4063C27.2813 25.2813 28.6042 24.3904 30.125 23.7337C31.6458 23.0779 33.2708 22.75 35 22.75C36.7292 22.75 38.3542 23.0779 39.875 23.7337C41.3958 24.3904 42.7188 25.2813 43.8438 26.4063C44.9688 27.5313 45.8592 28.8542 46.515 30.375C47.1717 31.8958 47.5 33.5208 47.5 35.25C47.5 36.9792 47.1717 38.6042 46.515 40.125C45.8592 41.6458 44.9688 42.9688 43.8438 44.0938C42.7188 45.2188 41.3958 46.1092 39.875 46.765C38.3542 47.4217 36.7292 47.75 35 47.75ZM35 45.25C37.7917 45.25 40.1562 44.2812 42.0937 42.3437C44.0312 40.4062 45 38.0417 45 35.25C45 32.4583 44.0312 30.0937 42.0937 28.1562C40.1562 26.2187 37.7917 25.25 35 25.25C32.2083 25.25 29.8437 26.2187 27.9062 28.1562C25.9687 30.0937 25 32.4583 25 35.25C25 38.0417 25.9687 40.4062 27.9062 42.3437C29.8437 44.2812 32.2083 45.25 35 45.25Z" fill="#8ECAE6"/>
</svg>
