<svg width="70" height="71" viewBox="0 0 70 71" fill="none" xmlns="http://www.w3.org/2000/svg">
<circle cx="35" cy="35.25" r="35" fill="#16213C"/>
<g clip-path="url(#clip0_231_1083)">
<path d="M35.625 32.75C35.625 30.6875 33.9375 29 31.875 29C29.8125 29 28.125 30.6875 28.125 32.75C28.125 34.8125 29.8125 36.5 31.875 36.5C33.9375 36.5 35.625 34.8125 35.625 32.75ZM31.875 34C31.1875 34 30.625 33.4375 30.625 32.75C30.625 32.0625 31.1875 31.5 31.875 31.5C32.5625 31.5 33.125 32.0625 33.125 32.75C33.125 33.4375 32.5625 34 31.875 34ZM40 36.5C41.3875 36.5 42.5 35.3875 42.5 34C42.5 32.6125 41.3875 31.5 40 31.5C38.6125 31.5 37.4875 32.6125 37.5 34C37.5 35.3875 38.6125 36.5 40 36.5ZM34.9875 22.7625C28.0875 22.7625 22.4875 28.3625 22.4875 35.2625C22.4875 42.1625 28.0875 47.7625 34.9875 47.7625C41.8875 47.7625 47.4875 42.1625 47.4875 35.2625C47.4875 28.3625 41.8875 22.7625 34.9875 22.7625V22.7625ZM27.3 41.65C28.15 40.975 30.1375 40.2625 31.875 40.2625C31.9625 40.2625 32.0625 40.275 32.1625 40.275C32.4625 39.475 33 38.6625 33.7875 37.95C33.1569 37.8291 32.5171 37.7622 31.875 37.75C30.25 37.75 27.6375 38.3125 25.9625 39.5375C25.3375 38.2375 24.9875 36.7875 24.9875 35.25C24.9875 29.7375 29.475 25.25 34.9875 25.25C40.5 25.25 44.9875 29.7375 44.9875 35.25C44.9875 36.75 44.65 38.175 44.05 39.4625C42.8 38.725 41.1 38.375 40 38.375C38.1 38.375 34.375 39.3875 34.375 41.75V45.225C33.0133 45.1475 31.6822 44.7901 30.4649 44.175C29.2476 43.5598 28.1702 42.7003 27.3 41.65V41.65Z" fill="#8ECAE6"/>
</g>
<defs>
<clipPath id="clip0_231_1083">
<rect width="30" height="30" fill="white" transform="translate(20 20.25)"/>
</clipPath>
</defs>
</svg>
