<svg width="11" height="11" viewBox="0 0 11 11" fill="none" xmlns="http://www.w3.org/2000/svg">
<path fill-rule="evenodd" clip-rule="evenodd" d="M2.20716 0.505983C2.59715 0.115673 3.22973 0.115496 3.61993 0.505589L5.46418 2.3493C5.85423 2.73925 5.85441 3.37153 5.46457 3.7617L4.81089 4.41592L6.93559 6.54028L7.58884 5.88648C7.97883 5.49617 8.61141 5.496 9.00162 5.88609L10.6475 7.53154C11.0376 7.92149 11.0378 8.55378 10.6479 8.94394L9.55914 10.0336C8.92073 10.6726 7.93795 10.8152 7.14428 10.384C4.44868 8.91963 2.23438 6.70562 0.769317 4.01044C0.338125 3.21721 0.479967 2.2346 1.11821 1.59583L2.20716 0.505983ZM4.75799 3.0557L2.91374 1.21198L1.82479 2.30183C1.49934 2.62755 1.42693 3.12875 1.64689 3.5334C3.01986 6.05918 5.095 8.13402 7.62109 9.50632C8.02582 9.72619 8.52699 9.65348 8.85255 9.32764L9.94136 8.23794L8.29543 6.59248L6.93594 7.9531L3.39854 4.41626L4.75799 3.0557Z" fill="#F5841F"/>
</svg>
