<svg width="52" height="19" viewBox="0 0 52 19" fill="none" xmlns="http://www.w3.org/2000/svg">
<path d="M16.9049 5.315C16.8159 4.95906 16.6344 4.63293 16.3789 4.36955C16.1235 4.10618 15.803 3.91489 15.4499 3.815C14.1599 3.5 8.99994 3.5 8.99994 3.5C8.99994 3.5 3.83994 3.5 2.54994 3.845C2.19688 3.94489 1.87642 4.13618 1.62095 4.39955C1.36548 4.66293 1.18403 4.98906 1.09494 5.345C0.858851 6.65417 0.743367 7.98223 0.74994 9.3125C0.741525 10.6528 0.857016 11.991 1.09494 13.31C1.19316 13.6549 1.37867 13.9686 1.63355 14.2209C1.88843 14.4731 2.20406 14.6554 2.54994 14.75C3.83994 15.095 8.99994 15.095 8.99994 15.095C8.99994 15.095 14.1599 15.095 15.4499 14.75C15.803 14.6501 16.1235 14.4588 16.3789 14.1954C16.6344 13.9321 16.8159 13.6059 16.9049 13.25C17.1392 11.9507 17.2547 10.6328 17.2499 9.3125C17.2584 7.97222 17.1429 6.63402 16.9049 5.315V5.315Z" stroke="#F5841F" stroke-width="1.2" stroke-linecap="round" stroke-linejoin="round"/>
<path d="M7.3125 11.7649L11.625 9.31236L7.3125 6.85986V11.7649Z" stroke="#F5841F" stroke-width="1.2" stroke-linecap="round" stroke-linejoin="round"/>
<path d="M46 6.5C47.1935 6.5 48.3381 6.97411 49.182 7.81802C50.0259 8.66193 50.5 9.80653 50.5 11V16.25H47.5V11C47.5 10.6022 47.342 10.2206 47.0607 9.93934C46.7794 9.65804 46.3978 9.5 46 9.5C45.6022 9.5 45.2206 9.65804 44.9393 9.93934C44.658 10.2206 44.5 10.6022 44.5 11V16.25H41.5V11C41.5 9.80653 41.9741 8.66193 42.818 7.81802C43.6619 6.97411 44.8065 6.5 46 6.5V6.5Z" stroke="#F5841F" stroke-width="1.2" stroke-linecap="round" stroke-linejoin="round"/>
<path d="M38.5 7.25H35.5V16.25H38.5V7.25Z" stroke="#F5841F" stroke-width="1.2" stroke-linecap="round" stroke-linejoin="round"/>
<path d="M37 5C37.8284 5 38.5 4.32843 38.5 3.5C38.5 2.67157 37.8284 2 37 2C36.1716 2 35.5 2.67157 35.5 3.5C35.5 4.32843 36.1716 5 37 5Z" stroke="#F5841F" stroke-width="1.2" stroke-linecap="round" stroke-linejoin="round"/>
</svg>
