<svg width="75" height="75" viewBox="0 0 75 75" fill="none" xmlns="http://www.w3.org/2000/svg">
<path d="M4.33239 51.531L4.33211 51.5304C2.44673 47.1639 1.5 42.4921 1.5 37.5C1.5 32.5079 2.44673 27.8361 4.33211 23.4696L4.33239 23.469C6.2279 19.0734 8.79403 15.2648 12.0294 12.0294C15.2648 8.79404 19.0734 6.22665 23.469 4.32864C27.8356 2.44558 32.5076 1.5 37.5 1.5C42.4922 1.5 47.1639 2.44549 51.5304 4.32836C55.9262 6.2264 59.7351 8.79388 62.9706 12.0294C66.206 15.2648 68.7721 19.0734 70.6676 23.469L70.6679 23.4696C72.5533 27.8361 73.5 32.5079 73.5 37.5C73.5 42.4921 72.5533 47.1639 70.6679 51.5304L70.6676 51.531C68.7721 55.9266 66.206 59.7352 62.9706 62.9706C59.7352 66.206 55.9266 68.7721 51.531 70.6676L51.5304 70.6679C47.1639 72.5533 42.4921 73.5 37.5 73.5C32.5079 73.5 27.8361 72.5533 23.4696 70.6679L23.469 70.6676C19.0734 68.7721 15.2648 66.206 12.0294 62.9706C8.79403 59.7352 6.2279 55.9266 4.33239 51.531ZM26.625 27.4688V47.5312C26.625 49.5404 27.5993 51.1148 29.3495 52.1149C30.209 52.606 31.1383 52.8738 32.1121 52.8263C33.0739 52.7794 33.9648 52.4305 34.7699 51.8732L50.301 41.9557C50.3021 41.955 50.3032 41.9544 50.3043 41.9537C51.9135 40.936 52.7812 39.4017 52.7812 37.5C52.7812 35.5983 51.9135 34.064 50.3043 33.0463C50.3032 33.0456 50.3021 33.045 50.301 33.0443L34.7699 23.1268C33.9648 22.5695 33.0739 22.2206 32.1121 22.1737C31.1383 22.1262 30.209 22.394 29.3495 22.8851C27.5993 23.8852 26.625 25.4596 26.625 27.4688Z" stroke="#F5841F" stroke-width="3"/>
</svg>
