<svg width="49" height="49" viewBox="0 0 49 49" fill="none" xmlns="http://www.w3.org/2000/svg">
<path d="M18.5302 18.2661V31.0408C18.5302 31.9561 18.9481 32.6526 19.7838 33.1301C20.6196 33.6077 21.4354 33.5679 22.2313 33.0107L32.1407 26.6831C32.8969 26.2055 33.2749 25.529 33.2749 24.6534C33.2749 23.7779 32.8969 23.1014 32.1407 22.6238L22.2313 16.2961C21.4354 15.739 20.6196 15.6992 19.7838 16.1767C18.9481 16.6543 18.5302 17.3507 18.5302 18.2661ZM24.4997 48.5315C21.1966 48.5315 18.0925 47.9043 15.1873 46.6499C12.2821 45.3971 9.75505 43.6962 7.60603 41.5471C5.45701 39.3981 3.75609 36.871 2.50329 33.9659C1.2489 31.0607 0.621704 27.9566 0.621704 24.6534C0.621704 21.3503 1.2489 18.2462 2.50329 15.341C3.75609 12.4358 5.45701 9.90874 7.60603 7.75972C9.75505 5.61069 12.2821 3.90898 15.1873 2.65459C18.0925 1.40179 21.1966 0.775391 24.4997 0.775391C27.8029 0.775391 30.907 1.40179 33.8122 2.65459C36.7173 3.90898 39.2444 5.61069 41.3935 7.75972C43.5425 9.90874 45.2434 12.4358 46.4962 15.341C47.7506 18.2462 48.3778 21.3503 48.3778 24.6534C48.3778 27.9566 47.7506 31.0607 46.4962 33.9659C45.2434 36.871 43.5425 39.3981 41.3935 41.5471C39.2444 43.6962 36.7173 45.3971 33.8122 46.6499C30.907 47.9043 27.8029 48.5315 24.4997 48.5315Z" fill="#F5841F"/>
</svg>
